# xmcd
#
# Track frame offsets:
#	150
#	14264
#	28329
#	39261
#	55007
#	66591
#	77419
#	91668
#	105709
#	117393
#	130202
#	145942
#
# Disc length: 2119 seconds
#
# Revision: 0
# Processed by: cddbd v1.5.2PL0 Copyright (c) Steve Scherf et al.
# Submitted via: EasyCDDAExtractor 15.3.0.1
#
DISCID=9b08450c
DTITLE=Eero Aven - Laulava Sydän LP 1987
DYEAR=1987
DGENRE=Suomi Iskelmä
TTITLE0=Neiti Ruusunen
TTITLE1=Laulava Sydän
TTITLE2=No Niin, Mary Lou
TTITLE3=Ruskeasilmäinen Tyttö
TTITLE4=Jäin Hurmioon
TTITLE5=Tanssi Rakkaani Vain
TTITLE6=Ystävän Jos Menetän
TTITLE7=Pettymys
TTITLE8=Lapinyön Tunnelmaan
TTITLE9=Rakastin Haaveilin
TTITLE10=Miksi
TTITLE11=Yksinhuoltaja
EXTD=
EXTT0=
EXTT1=
EXTT2=
EXTT3=
EXTT4=
EXTT5=
EXTT6=
EXTT7=
EXTT8=
EXTT9=
EXTT10=
EXTT11=
PLAYORDER=
